<?xml version="1.0" encoding="us-ascii" standalone="no"?><svg xmlns="http://www.w3.org/2000/svg" xmlns:xlink="http://www.w3.org/1999/xlink" contentStyleType="text/css" height="2058px" preserveAspectRatio="none" style="width:1120px;height:2058px;background:#FFFFFF;" version="1.1" viewBox="0 0 1120 2058" width="1120px" zoomAndPan="magnify"><defs/><g><text fill="#000000" font-family="sans-serif" font-size="14" font-weight="bold" lengthAdjust="spacing" textLength="327" x="397.5" y="29.5332">I.R.I.S. IP Rights Application Sequence Diagram</text><rect fill="none" height="185.9453" style="stroke:#000000;stroke-width:1.5;" width="1063" x="30" y="320.3281"/><rect fill="none" height="61.7031" style="stroke:#000000;stroke-width:1.5;" width="201" x="289.5" y="611.3281"/><rect fill="none" height="874" style="stroke:#000000;stroke-width:1.5;" width="1103" x="10" y="687.0313"/><rect fill="none" height="277" style="stroke:#000000;stroke-width:1.5;" width="1063" x="30" y="846.7891"/><rect fill="none" height="400.4063" style="stroke:#000000;stroke-width:1.5;" width="1083" x="20" y="1153.625"/><rect fill="none" height="277" style="stroke:#000000;stroke-width:1.5;" width="1063" x="30" y="1270.0313"/><rect fill="none" height="189.3594" style="stroke:#000000;stroke-width:1.5;" width="1063" x="30" y="1770.1406"/><line style="stroke:#181818;stroke-width:0.5;stroke-dasharray:5.0,5.0;" x1="93" x2="93" y1="121.2188" y2="1976.5"/><line style="stroke:#181818;stroke-width:0.5;stroke-dasharray:5.0,5.0;" x1="326.5" x2="326.5" y1="121.2188" y2="1976.5"/><line style="stroke:#181818;stroke-width:0.5;stroke-dasharray:5.0,5.0;" x1="535.5" x2="535.5" y1="121.2188" y2="1976.5"/><line style="stroke:#181818;stroke-width:0.5;stroke-dasharray:5.0,5.0;" x1="667.5" x2="667.5" y1="121.2188" y2="1976.5"/><line style="stroke:#181818;stroke-width:0.5;stroke-dasharray:5.0,5.0;" x1="1049" x2="1049" y1="121.2188" y2="1976.5"/><text fill="#000000" font-family="sans-serif" font-size="14" lengthAdjust="spacing" textLength="101" x="40" y="118.1426">Tech Generator</text><ellipse cx="93.5" cy="52.1094" fill="#E2E2F0" rx="8" ry="8" style="stroke:#181818;stroke-width:0.5;"/><path d="M93.5,60.1094 L93.5,87.1094 M80.5,68.1094 L106.5,68.1094 M93.5,87.1094 L80.5,102.1094 M93.5,87.1094 L106.5,102.1094 " fill="none" style="stroke:#181818;stroke-width:0.5;"/><text fill="#000000" font-family="sans-serif" font-size="14" lengthAdjust="spacing" textLength="101" x="40" y="1990.0332">Tech Generator</text><ellipse cx="93.5" cy="2001.6094" fill="#E2E2F0" rx="8" ry="8" style="stroke:#181818;stroke-width:0.5;"/><path d="M93.5,2009.6094 L93.5,2036.6094 M80.5,2017.6094 L106.5,2017.6094 M93.5,2036.6094 L80.5,2051.6094 M93.5,2036.6094 L106.5,2051.6094 " fill="none" style="stroke:#181818;stroke-width:0.5;"/><text fill="#000000" font-family="sans-serif" font-size="14" lengthAdjust="spacing" textLength="48" x="299.5" y="118.1426">TTBDO</text><ellipse cx="326.5" cy="52.1094" fill="#E2E2F0" rx="8" ry="8" style="stroke:#181818;stroke-width:0.5;"/><path d="M326.5,60.1094 L326.5,87.1094 M313.5,68.1094 L339.5,68.1094 M326.5,87.1094 L313.5,102.1094 M326.5,87.1094 L339.5,102.1094 " fill="none" style="stroke:#181818;stroke-width:0.5;"/><text fill="#000000" font-family="sans-serif" font-size="14" lengthAdjust="spacing" textLength="48" x="299.5" y="1990.0332">TTBDO</text><ellipse cx="326.5" cy="2001.6094" fill="#E2E2F0" rx="8" ry="8" style="stroke:#181818;stroke-width:0.5;"/><path d="M326.5,2009.6094 L326.5,2036.6094 M313.5,2017.6094 L339.5,2017.6094 M326.5,2036.6094 L313.5,2051.6094 M326.5,2036.6094 L339.5,2051.6094 " fill="none" style="stroke:#181818;stroke-width:0.5;"/><text fill="#000000" font-family="sans-serif" font-size="14" lengthAdjust="spacing" textLength="52" x="506.5" y="118.1426">IPOPHIL</text><ellipse cx="535.5" cy="52.1094" fill="#E2E2F0" rx="8" ry="8" style="stroke:#181818;stroke-width:0.5;"/><path d="M535.5,60.1094 L535.5,87.1094 M522.5,68.1094 L548.5,68.1094 M535.5,87.1094 L522.5,102.1094 M535.5,87.1094 L548.5,102.1094 " fill="none" style="stroke:#181818;stroke-width:0.5;"/><text fill="#000000" font-family="sans-serif" font-size="14" lengthAdjust="spacing" textLength="52" x="506.5" y="1990.0332">IPOPHIL</text><ellipse cx="535.5" cy="2001.6094" fill="#E2E2F0" rx="8" ry="8" style="stroke:#181818;stroke-width:0.5;"/><path d="M535.5,2009.6094 L535.5,2036.6094 M522.5,2017.6094 L548.5,2017.6094 M535.5,2036.6094 L522.5,2051.6094 M535.5,2036.6094 L548.5,2051.6094 " fill="none" style="stroke:#181818;stroke-width:0.5;"/><rect fill="#E2E2F0" height="31.6094" rx="2.5" ry="2.5" style="stroke:#181818;stroke-width:0.5;" width="60" x="637.5" y="88.6094"/><text fill="#000000" font-family="sans-serif" font-size="14" lengthAdjust="spacing" textLength="46" x="644.5" y="110.1426">System</text><rect fill="#E2E2F0" height="31.6094" rx="2.5" ry="2.5" style="stroke:#181818;stroke-width:0.5;" width="60" x="637.5" y="1975.5"/><text fill="#000000" font-family="sans-serif" font-size="14" lengthAdjust="spacing" textLength="46" x="644.5" y="1997.0332">System</text><text fill="#000000" font-family="sans-serif" font-size="14" lengthAdjust="spacing" textLength="61" x="1016" y="118.1426">Database</text><path d="M1031.5,67.6094 C1031.5,57.6094 1049.5,57.6094 1049.5,57.6094 C1049.5,57.6094 1067.5,57.6094 1067.5,67.6094 L1067.5,93.6094 C1067.5,103.6094 1049.5,103.6094 1049.5,103.6094 C1049.5,103.6094 1031.5,103.6094 1031.5,93.6094 L1031.5,67.6094 " fill="#E2E2F0" style="stroke:#181818;stroke-width:1.5;"/><path d="M1031.5,67.6094 C1031.5,77.6094 1049.5,77.6094 1049.5,77.6094 C1049.5,77.6094 1067.5,77.6094 1067.5,67.6094 " fill="none" style="stroke:#181818;stroke-width:1.5;"/><text fill="#000000" font-family="sans-serif" font-size="14" lengthAdjust="spacing" textLength="61" x="1016" y="1990.0332">Database</text><path d="M1031.5,2003.1094 C1031.5,1993.1094 1049.5,1993.1094 1049.5,1993.1094 C1049.5,1993.1094 1067.5,1993.1094 1067.5,2003.1094 L1067.5,2029.1094 C1067.5,2039.1094 1049.5,2039.1094 1049.5,2039.1094 C1049.5,2039.1094 1031.5,2039.1094 1031.5,2029.1094 L1031.5,2003.1094 " fill="#E2E2F0" style="stroke:#181818;stroke-width:1.5;"/><path d="M1031.5,2003.1094 C1031.5,2013.1094 1049.5,2013.1094 1049.5,2013.1094 C1049.5,2013.1094 1067.5,2013.1094 1067.5,2003.1094 " fill="none" style="stroke:#181818;stroke-width:1.5;"/><polygon fill="#181818" points="314.5,149.5703,324.5,153.5703,314.5,157.5703,318.5,153.5703" style="stroke:#181818;stroke-width:1.0;"/><line style="stroke:#181818;stroke-width:1.0;" x1="93.5" x2="320.5" y1="153.5703" y2="153.5703"/><text fill="#000000" font-family="sans-serif" font-size="13" lengthAdjust="spacing" textLength="188" x="100.5" y="148.7139">Submit IP Disclosure Form (IDF)</text><polygon fill="#181818" points="655.5,179.9219,665.5,183.9219,655.5,187.9219,659.5,183.9219" style="stroke:#181818;stroke-width:1.0;"/><line style="stroke:#181818;stroke-width:1.0;" x1="326.5" x2="661.5" y1="183.9219" y2="183.9219"/><text fill="#000000" font-family="sans-serif" font-size="13" lengthAdjust="spacing" textLength="189" x="333.5" y="179.0654">Update(APP_ID, "IDF Received")</text><polygon fill="#181818" points="1037.5,210.2734,1047.5,214.2734,1037.5,218.2734,1041.5,214.2734" style="stroke:#181818;stroke-width:1.0;"/><line style="stroke:#181818;stroke-width:1.0;" x1="667.5" x2="1043.5" y1="214.2734" y2="214.2734"/><text fill="#000000" font-family="sans-serif" font-size="13" lengthAdjust="spacing" textLength="295" x="674.5" y="209.417">Upsert(APP_ID, "IDF Received", IDF_ID, metadata)</text><polygon fill="#181818" points="678.5,240.625,668.5,244.625,678.5,248.625,674.5,244.625" style="stroke:#181818;stroke-width:1.0;"/><line style="stroke:#181818;stroke-width:1.0;stroke-dasharray:2.0,2.0;" x1="672.5" x2="1048.5" y1="244.625" y2="244.625"/><text fill="#000000" font-family="sans-serif" font-size="13" lengthAdjust="spacing" textLength="93" x="684.5" y="239.7686">IDF_ID, APP_ID</text><polygon fill="#181818" points="337.5,270.9766,327.5,274.9766,337.5,278.9766,333.5,274.9766" style="stroke:#181818;stroke-width:1.0;"/><line style="stroke:#181818;stroke-width:1.0;stroke-dasharray:2.0,2.0;" x1="331.5" x2="666.5" y1="274.9766" y2="274.9766"/><text fill="#000000" font-family="sans-serif" font-size="13" lengthAdjust="spacing" textLength="74" x="343.5" y="270.1201">IDF recorded</text><polygon fill="#181818" points="104.5,301.3281,94.5,305.3281,104.5,309.3281,100.5,305.3281" style="stroke:#181818;stroke-width:1.0;"/><line style="stroke:#181818;stroke-width:1.0;" x1="98.5" x2="666.5" y1="305.3281" y2="305.3281"/><text fill="#000000" font-family="sans-serif" font-size="13" lengthAdjust="spacing" textLength="112" x="110.5" y="300.4717">Forms under review</text><path d="M30,320.3281 L91,320.3281 L91,328.6797 L81,338.6797 L30,338.6797 L30,320.3281 " fill="#EEEEEE" style="stroke:#000000;stroke-width:1.5;"/><rect fill="none" height="185.9453" style="stroke:#000000;stroke-width:1.5;" width="1063" x="30" y="320.3281"/><text fill="#000000" font-family="sans-serif" font-size="13" font-weight="bold" lengthAdjust="spacing" textLength="16" x="45" y="334.8232">alt</text><text fill="#000000" font-family="sans-serif" font-size="11" font-weight="bold" lengthAdjust="spacing" textLength="132" x="106" y="333.7471">[Incomplete application]</text><polygon fill="#181818" points="104.5,357.0313,94.5,361.0313,104.5,365.0313,100.5,361.0313" style="stroke:#181818;stroke-width:1.0;"/><line style="stroke:#181818;stroke-width:1.0;" x1="98.5" x2="325.5" y1="361.0313" y2="361.0313"/><text fill="#000000" font-family="sans-serif" font-size="13" lengthAdjust="spacing" textLength="121" x="110.5" y="356.1748">Request missing info</text><polygon fill="#181818" points="314.5,387.3828,324.5,391.3828,314.5,395.3828,318.5,391.3828" style="stroke:#181818;stroke-width:1.0;"/><line style="stroke:#181818;stroke-width:1.0;" x1="93.5" x2="320.5" y1="391.3828" y2="391.3828"/><text fill="#000000" font-family="sans-serif" font-size="13" lengthAdjust="spacing" textLength="121" x="100.5" y="386.5264">Provide requirements</text><polygon fill="#181818" points="655.5,417.7344,665.5,421.7344,655.5,425.7344,659.5,421.7344" style="stroke:#181818;stroke-width:1.0;"/><line style="stroke:#181818;stroke-width:1.0;" x1="326.5" x2="661.5" y1="421.7344" y2="421.7344"/><text fill="#000000" font-family="sans-serif" font-size="13" lengthAdjust="spacing" textLength="185" x="333.5" y="416.8779">Update(APP_ID, "IDF Updated")</text><polygon fill="#181818" points="1037.5,448.0859,1047.5,452.0859,1037.5,456.0859,1041.5,452.0859" style="stroke:#181818;stroke-width:1.0;"/><line style="stroke:#181818;stroke-width:1.0;" x1="667.5" x2="1043.5" y1="452.0859" y2="452.0859"/><text fill="#000000" font-family="sans-serif" font-size="13" lengthAdjust="spacing" textLength="182" x="674.5" y="447.2295">Upsert(APP_ID, "IDF Updated")</text><line style="stroke:#000000;stroke-width:1.0;stroke-dasharray:2.0,2.0;" x1="30" x2="1093" y1="461.0859" y2="461.0859"/><text fill="#000000" font-family="sans-serif" font-size="11" font-weight="bold" lengthAdjust="spacing" textLength="62" x="35" y="472.5049">[Complete]</text><polygon fill="#181818" points="104.5,494.2734,94.5,498.2734,104.5,502.2734,100.5,498.2734" style="stroke:#181818;stroke-width:1.0;"/><line style="stroke:#181818;stroke-width:1.0;" x1="98.5" x2="325.5" y1="498.2734" y2="498.2734"/><text fill="#000000" font-family="sans-serif" font-size="13" lengthAdjust="spacing" textLength="124" x="110.5" y="493.417">Proceed to evaluation</text><polygon fill="#181818" points="655.5,531.625,665.5,535.625,655.5,539.625,659.5,535.625" style="stroke:#181818;stroke-width:1.0;"/><line style="stroke:#181818;stroke-width:1.0;" x1="326.5" x2="661.5" y1="535.625" y2="535.625"/><text fill="#000000" font-family="sans-serif" font-size="13" lengthAdjust="spacing" textLength="142" x="333.5" y="530.7686">Upsert(USER_ID, TITLE)</text><polygon fill="#181818" points="1037.5,561.9766,1047.5,565.9766,1037.5,569.9766,1041.5,565.9766" style="stroke:#181818;stroke-width:1.0;"/><line style="stroke:#181818;stroke-width:1.0;" x1="667.5" x2="1043.5" y1="565.9766" y2="565.9766"/><text fill="#000000" font-family="sans-serif" font-size="13" lengthAdjust="spacing" textLength="327" x="674.5" y="561.1201">Upsert(APP_ID, "Application Created", USER_ID, TITLE)</text><polygon fill="#181818" points="104.5,592.3281,94.5,596.3281,104.5,600.3281,100.5,596.3281" style="stroke:#181818;stroke-width:1.0;"/><line style="stroke:#181818;stroke-width:1.0;" x1="98.5" x2="666.5" y1="596.3281" y2="596.3281"/><text fill="#000000" font-family="sans-serif" font-size="13" lengthAdjust="spacing" textLength="218" x="110.5" y="591.4717">Notify(APP_ID, "Application Created")</text><path d="M289.5,611.3281 L475.5,611.3281 L475.5,619.6797 L465.5,629.6797 L289.5,629.6797 L289.5,611.3281 " fill="#EEEEEE" style="stroke:#000000;stroke-width:1.5;"/><rect fill="none" height="61.7031" style="stroke:#000000;stroke-width:1.5;" width="201" x="289.5" y="611.3281"/><text fill="#000000" font-family="sans-serif" font-size="13" font-weight="bold" lengthAdjust="spacing" textLength="141" x="304.5" y="625.8232">Prior Art Search (PAS)</text><line style="stroke:#181818;stroke-width:1.0;" x1="326.5" x2="368.5" y1="652.0313" y2="652.0313"/><line style="stroke:#181818;stroke-width:1.0;" x1="368.5" x2="368.5" y1="652.0313" y2="665.0313"/><line style="stroke:#181818;stroke-width:1.0;" x1="327.5" x2="368.5" y1="665.0313" y2="665.0313"/><polygon fill="#181818" points="337.5,661.0313,327.5,665.0313,337.5,669.0313,333.5,665.0313" style="stroke:#181818;stroke-width:1.0;"/><text fill="#000000" font-family="sans-serif" font-size="13" lengthAdjust="spacing" textLength="145" x="333.5" y="647.1748">Conduct Prior Art Search</text><path d="M10,687.0313 L71,687.0313 L71,695.3828 L61,705.3828 L10,705.3828 L10,687.0313 " fill="#EEEEEE" style="stroke:#000000;stroke-width:1.5;"/><rect fill="none" height="874" style="stroke:#000000;stroke-width:1.5;" width="1103" x="10" y="687.0313"/><text fill="#000000" font-family="sans-serif" font-size="13" font-weight="bold" lengthAdjust="spacing" textLength="16" x="25" y="701.5264">alt</text><text fill="#000000" font-family="sans-serif" font-size="11" font-weight="bold" lengthAdjust="spacing" textLength="264" x="86" y="700.4502">[Patent, Utility Model (UM), Industrial Design (ID)]</text><line style="stroke:#181818;stroke-width:1.0;" x1="326.5" x2="368.5" y1="727.7344" y2="727.7344"/><line style="stroke:#181818;stroke-width:1.0;" x1="368.5" x2="368.5" y1="727.7344" y2="740.7344"/><line style="stroke:#181818;stroke-width:1.0;" x1="327.5" x2="368.5" y1="740.7344" y2="740.7344"/><polygon fill="#181818" points="337.5,736.7344,327.5,740.7344,337.5,744.7344,333.5,740.7344" style="stroke:#181818;stroke-width:1.0;"/><text fill="#000000" font-family="sans-serif" font-size="13" lengthAdjust="spacing" textLength="95" x="333.5" y="722.8779">Draft Application</text><polygon fill="#181818" points="655.5,767.0859,665.5,771.0859,655.5,775.0859,659.5,771.0859" style="stroke:#181818;stroke-width:1.0;"/><line style="stroke:#181818;stroke-width:1.0;" x1="326.5" x2="661.5" y1="771.0859" y2="771.0859"/><text fill="#000000" font-family="sans-serif" font-size="13" lengthAdjust="spacing" textLength="203" x="333.5" y="766.2295">Update(APP_ID, "Drafting Started")</text><polygon fill="#181818" points="1037.5,797.4375,1047.5,801.4375,1037.5,805.4375,1041.5,801.4375" style="stroke:#181818;stroke-width:1.0;"/><line style="stroke:#181818;stroke-width:1.0;" x1="667.5" x2="1043.5" y1="801.4375" y2="801.4375"/><text fill="#000000" font-family="sans-serif" font-size="13" lengthAdjust="spacing" textLength="200" x="674.5" y="796.5811">Upsert(APP_ID, "Drafting Started")</text><polygon fill="#181818" points="104.5,827.7891,94.5,831.7891,104.5,835.7891,100.5,831.7891" style="stroke:#181818;stroke-width:1.0;"/><line style="stroke:#181818;stroke-width:1.0;" x1="98.5" x2="666.5" y1="831.7891" y2="831.7891"/><text fill="#000000" font-family="sans-serif" font-size="13" lengthAdjust="spacing" textLength="195" x="110.5" y="826.9326">Notify(APP_ID, "Drafting Started")</text><path d="M30,846.7891 L103,846.7891 L103,855.1406 L93,865.1406 L30,865.1406 L30,846.7891 " fill="#EEEEEE" style="stroke:#000000;stroke-width:1.5;"/><rect fill="none" height="277" style="stroke:#000000;stroke-width:1.5;" width="1063" x="30" y="846.7891"/><text fill="#000000" font-family="sans-serif" font-size="13" font-weight="bold" lengthAdjust="spacing" textLength="28" x="45" y="861.2842">loop</text><text fill="#000000" font-family="sans-serif" font-size="11" font-weight="bold" lengthAdjust="spacing" textLength="136" x="118" y="860.208">[Until draft is acceptable]</text><polygon fill="#181818" points="104.5,883.4922,94.5,887.4922,104.5,891.4922,100.5,887.4922" style="stroke:#181818;stroke-width:1.0;"/><line style="stroke:#181818;stroke-width:1.0;" x1="98.5" x2="325.5" y1="887.4922" y2="887.4922"/><text fill="#000000" font-family="sans-serif" font-size="13" lengthAdjust="spacing" textLength="188" x="110.5" y="882.6357">Collaborate for application review</text><polygon fill="#181818" points="314.5,913.8438,324.5,917.8438,314.5,921.8438,318.5,917.8438" style="stroke:#181818;stroke-width:1.0;"/><line style="stroke:#181818;stroke-width:1.0;" x1="93.5" x2="320.5" y1="917.8438" y2="917.8438"/><text fill="#000000" font-family="sans-serif" font-size="13" lengthAdjust="spacing" textLength="188" x="100.5" y="912.9873">Collaborate for application review</text><polygon fill="#181818" points="655.5,944.1953,665.5,948.1953,655.5,952.1953,659.5,948.1953" style="stroke:#181818;stroke-width:1.0;"/><line style="stroke:#181818;stroke-width:1.0;" x1="326.5" x2="661.5" y1="948.1953" y2="948.1953"/><text fill="#000000" font-family="sans-serif" font-size="13" lengthAdjust="spacing" textLength="189" x="333.5" y="943.3389">Update(APP_ID, "Draft Revised")</text><polygon fill="#181818" points="1037.5,974.5469,1047.5,978.5469,1037.5,982.5469,1041.5,978.5469" style="stroke:#181818;stroke-width:1.0;"/><line style="stroke:#181818;stroke-width:1.0;" x1="667.5" x2="1043.5" y1="978.5469" y2="978.5469"/><text fill="#000000" font-family="sans-serif" font-size="13" lengthAdjust="spacing" textLength="186" x="674.5" y="973.6904">Upsert(APP_ID, "Draft Revised")</text><polygon fill="#181818" points="104.5,1004.8984,94.5,1008.8984,104.5,1012.8984,100.5,1008.8984" style="stroke:#181818;stroke-width:1.0;"/><line style="stroke:#181818;stroke-width:1.0;" x1="98.5" x2="666.5" y1="1008.8984" y2="1008.8984"/><text fill="#000000" font-family="sans-serif" font-size="13" lengthAdjust="spacing" textLength="181" x="110.5" y="1004.042">Notify(APP_ID, "Draft Revised")</text><line style="stroke:#000000;stroke-width:1.0;stroke-dasharray:2.0,2.0;" x1="30" x2="1093" y1="1017.8984" y2="1017.8984"/><text fill="#000000" font-family="sans-serif" font-size="11" font-weight="bold" lengthAdjust="spacing" textLength="96" x="35" y="1029.3174">[Draft acceptable]</text><polygon fill="#181818" points="655.5,1051.0859,665.5,1055.0859,655.5,1059.0859,659.5,1055.0859" style="stroke:#181818;stroke-width:1.0;"/><line style="stroke:#181818;stroke-width:1.0;" x1="326.5" x2="661.5" y1="1055.0859" y2="1055.0859"/><text fill="#000000" font-family="sans-serif" font-size="13" lengthAdjust="spacing" textLength="250" x="333.5" y="1050.2295">Update(APP_ID, "Draft Approved for Filing")</text><polygon fill="#181818" points="1037.5,1081.4375,1047.5,1085.4375,1037.5,1089.4375,1041.5,1085.4375" style="stroke:#181818;stroke-width:1.0;"/><line style="stroke:#181818;stroke-width:1.0;" x1="667.5" x2="1043.5" y1="1085.4375" y2="1085.4375"/><text fill="#000000" font-family="sans-serif" font-size="13" lengthAdjust="spacing" textLength="247" x="674.5" y="1080.5811">Upsert(APP_ID, "Draft Approved for Filing")</text><polygon fill="#181818" points="104.5,1111.7891,94.5,1115.7891,104.5,1119.7891,100.5,1115.7891" style="stroke:#181818;stroke-width:1.0;"/><line style="stroke:#181818;stroke-width:1.0;" x1="98.5" x2="666.5" y1="1115.7891" y2="1115.7891"/><text fill="#000000" font-family="sans-serif" font-size="13" lengthAdjust="spacing" textLength="242" x="110.5" y="1110.9326">Notify(APP_ID, "Draft Approved for Filing")</text><line style="stroke:#000000;stroke-width:1.0;stroke-dasharray:2.0,2.0;" x1="10" x2="1113" y1="1131.7891" y2="1131.7891"/><text fill="#000000" font-family="sans-serif" font-size="11" font-weight="bold" lengthAdjust="spacing" textLength="97" x="15" y="1143.208">[Trademark (TM)]</text><path d="M20,1153.625 L245,1153.625 L245,1161.9766 L235,1171.9766 L20,1171.9766 L20,1153.625 " fill="#EEEEEE" style="stroke:#000000;stroke-width:1.5;"/><rect fill="none" height="400.4063" style="stroke:#000000;stroke-width:1.5;" width="1083" x="20" y="1153.625"/><text fill="#000000" font-family="sans-serif" font-size="13" font-weight="bold" lengthAdjust="spacing" textLength="180" x="35" y="1168.1201">(TM only) NICE Classification</text><polygon fill="#181818" points="655.5,1190.3281,665.5,1194.3281,655.5,1198.3281,659.5,1194.3281" style="stroke:#181818;stroke-width:1.0;"/><line style="stroke:#181818;stroke-width:1.0;" x1="326.5" x2="661.5" y1="1194.3281" y2="1194.3281"/><text fill="#000000" font-family="sans-serif" font-size="13" lengthAdjust="spacing" textLength="269" x="333.5" y="1189.4717">Update(APP_ID, "NICE Classification Drafted")</text><polygon fill="#181818" points="1037.5,1220.6797,1047.5,1224.6797,1037.5,1228.6797,1041.5,1224.6797" style="stroke:#181818;stroke-width:1.0;"/><line style="stroke:#181818;stroke-width:1.0;" x1="667.5" x2="1043.5" y1="1224.6797" y2="1224.6797"/><text fill="#000000" font-family="sans-serif" font-size="13" lengthAdjust="spacing" textLength="346" x="674.5" y="1219.8232">Upsert(APP_ID, "NICE Classification Drafted", attachments)</text><polygon fill="#181818" points="104.5,1251.0313,94.5,1255.0313,104.5,1259.0313,100.5,1255.0313" style="stroke:#181818;stroke-width:1.0;"/><line style="stroke:#181818;stroke-width:1.0;" x1="98.5" x2="666.5" y1="1255.0313" y2="1255.0313"/><text fill="#000000" font-family="sans-serif" font-size="13" lengthAdjust="spacing" textLength="261" x="110.5" y="1250.1748">Notify(APP_ID, "NICE Classification Drafted")</text><path d="M30,1270.0313 L103,1270.0313 L103,1278.3828 L93,1288.3828 L30,1288.3828 L30,1270.0313 " fill="#EEEEEE" style="stroke:#000000;stroke-width:1.5;"/><rect fill="none" height="277" style="stroke:#000000;stroke-width:1.5;" width="1063" x="30" y="1270.0313"/><text fill="#000000" font-family="sans-serif" font-size="13" font-weight="bold" lengthAdjust="spacing" textLength="28" x="45" y="1284.5264">loop</text><text fill="#000000" font-family="sans-serif" font-size="11" font-weight="bold" lengthAdjust="spacing" textLength="182" x="118" y="1283.4502">[Until classification is acceptable]</text><polygon fill="#181818" points="104.5,1306.7344,94.5,1310.7344,104.5,1314.7344,100.5,1310.7344" style="stroke:#181818;stroke-width:1.0;"/><line style="stroke:#181818;stroke-width:1.0;" x1="98.5" x2="325.5" y1="1310.7344" y2="1310.7344"/><text fill="#000000" font-family="sans-serif" font-size="13" lengthAdjust="spacing" textLength="209" x="110.5" y="1305.8779">Collaborate for classification revision</text><polygon fill="#181818" points="314.5,1337.0859,324.5,1341.0859,314.5,1345.0859,318.5,1341.0859" style="stroke:#181818;stroke-width:1.0;"/><line style="stroke:#181818;stroke-width:1.0;" x1="93.5" x2="320.5" y1="1341.0859" y2="1341.0859"/><text fill="#000000" font-family="sans-serif" font-size="13" lengthAdjust="spacing" textLength="209" x="100.5" y="1336.2295">Collaborate for classification revision</text><polygon fill="#181818" points="655.5,1367.4375,665.5,1371.4375,655.5,1375.4375,659.5,1371.4375" style="stroke:#181818;stroke-width:1.0;"/><line style="stroke:#181818;stroke-width:1.0;" x1="326.5" x2="661.5" y1="1371.4375" y2="1371.4375"/><text fill="#000000" font-family="sans-serif" font-size="13" lengthAdjust="spacing" textLength="273" x="333.5" y="1366.5811">Update(APP_ID, "NICE Classification Revised")</text><polygon fill="#181818" points="1037.5,1397.7891,1047.5,1401.7891,1037.5,1405.7891,1041.5,1401.7891" style="stroke:#181818;stroke-width:1.0;"/><line style="stroke:#181818;stroke-width:1.0;" x1="667.5" x2="1043.5" y1="1401.7891" y2="1401.7891"/><text fill="#000000" font-family="sans-serif" font-size="13" lengthAdjust="spacing" textLength="270" x="674.5" y="1396.9326">Upsert(APP_ID, "NICE Classification Revised")</text><polygon fill="#181818" points="104.5,1428.1406,94.5,1432.1406,104.5,1436.1406,100.5,1432.1406" style="stroke:#181818;stroke-width:1.0;"/><line style="stroke:#181818;stroke-width:1.0;" x1="98.5" x2="666.5" y1="1432.1406" y2="1432.1406"/><text fill="#000000" font-family="sans-serif" font-size="13" lengthAdjust="spacing" textLength="265" x="110.5" y="1427.2842">Notify(APP_ID, "NICE Classification Revised")</text><line style="stroke:#000000;stroke-width:1.0;stroke-dasharray:2.0,2.0;" x1="30" x2="1093" y1="1441.1406" y2="1441.1406"/><text fill="#000000" font-family="sans-serif" font-size="11" font-weight="bold" lengthAdjust="spacing" textLength="173" x="35" y="1452.5596">[Acceptable NICE Classification]</text><polygon fill="#181818" points="655.5,1474.3281,665.5,1478.3281,655.5,1482.3281,659.5,1478.3281" style="stroke:#181818;stroke-width:1.0;"/><line style="stroke:#181818;stroke-width:1.0;" x1="326.5" x2="661.5" y1="1478.3281" y2="1478.3281"/><text fill="#000000" font-family="sans-serif" font-size="13" lengthAdjust="spacing" textLength="281" x="333.5" y="1473.4717">Update(APP_ID, "NICE Classification Approved")</text><polygon fill="#181818" points="1037.5,1504.6797,1047.5,1508.6797,1037.5,1512.6797,1041.5,1508.6797" style="stroke:#181818;stroke-width:1.0;"/><line style="stroke:#181818;stroke-width:1.0;" x1="667.5" x2="1043.5" y1="1508.6797" y2="1508.6797"/><text fill="#000000" font-family="sans-serif" font-size="13" lengthAdjust="spacing" textLength="358" x="674.5" y="1503.8232">Upsert(APP_ID, "NICE Classification Approved", attachments)</text><polygon fill="#181818" points="104.5,1535.0313,94.5,1539.0313,104.5,1543.0313,100.5,1539.0313" style="stroke:#181818;stroke-width:1.0;"/><line style="stroke:#181818;stroke-width:1.0;" x1="98.5" x2="666.5" y1="1539.0313" y2="1539.0313"/><text fill="#000000" font-family="sans-serif" font-size="13" lengthAdjust="spacing" textLength="273" x="110.5" y="1534.1748">Notify(APP_ID, "NICE Classification Approved")</text><line style="stroke:#181818;stroke-width:1.0;" x1="326.5" x2="368.5" y1="1590.3828" y2="1590.3828"/><line style="stroke:#181818;stroke-width:1.0;" x1="368.5" x2="368.5" y1="1590.3828" y2="1603.3828"/><line style="stroke:#181818;stroke-width:1.0;" x1="327.5" x2="368.5" y1="1603.3828" y2="1603.3828"/><polygon fill="#181818" points="337.5,1599.3828,327.5,1603.3828,337.5,1607.3828,333.5,1603.3828" style="stroke:#181818;stroke-width:1.0;"/><text fill="#000000" font-family="sans-serif" font-size="13" lengthAdjust="spacing" textLength="138" x="333.5" y="1585.5264">Finalize IPR Application</text><polygon fill="#181818" points="523.5,1629.7344,533.5,1633.7344,523.5,1637.7344,527.5,1633.7344" style="stroke:#181818;stroke-width:1.0;"/><line style="stroke:#181818;stroke-width:1.0;" x1="326.5" x2="529.5" y1="1633.7344" y2="1633.7344"/><text fill="#000000" font-family="sans-serif" font-size="13" lengthAdjust="spacing" textLength="185" x="333.5" y="1628.8779">Submit application and pay fees</text><polygon fill="#181818" points="655.5,1660.0859,665.5,1664.0859,655.5,1668.0859,659.5,1664.0859" style="stroke:#181818;stroke-width:1.0;"/><line style="stroke:#181818;stroke-width:1.0;" x1="326.5" x2="661.5" y1="1664.0859" y2="1664.0859"/><text fill="#000000" font-family="sans-serif" font-size="13" lengthAdjust="spacing" textLength="317" x="333.5" y="1659.2295">Update(APP_ID, "Filed: Await IPO Acknowledgement")</text><polygon fill="#181818" points="1037.5,1690.4375,1047.5,1694.4375,1037.5,1698.4375,1041.5,1694.4375" style="stroke:#181818;stroke-width:1.0;"/><line style="stroke:#181818;stroke-width:1.0;" x1="667.5" x2="1043.5" y1="1694.4375" y2="1694.4375"/><text fill="#000000" font-family="sans-serif" font-size="13" lengthAdjust="spacing" textLength="314" x="674.5" y="1689.5811">Upsert(APP_ID, "Filed: Await IPO Acknowledgement")</text><polygon fill="#181818" points="104.5,1720.7891,94.5,1724.7891,104.5,1728.7891,100.5,1724.7891" style="stroke:#181818;stroke-width:1.0;"/><line style="stroke:#181818;stroke-width:1.0;" x1="98.5" x2="666.5" y1="1724.7891" y2="1724.7891"/><text fill="#000000" font-family="sans-serif" font-size="13" lengthAdjust="spacing" textLength="309" x="110.5" y="1719.9326">Notify(APP_ID, "Filed: Await IPO Acknowledgement")</text><polygon fill="#181818" points="337.5,1751.1406,327.5,1755.1406,337.5,1759.1406,333.5,1755.1406" style="stroke:#181818;stroke-width:1.0;"/><line style="stroke:#181818;stroke-width:1.0;stroke-dasharray:2.0,2.0;" x1="331.5" x2="534.5" y1="1755.1406" y2="1755.1406"/><text fill="#000000" font-family="sans-serif" font-size="13" lengthAdjust="spacing" textLength="84" x="343.5" y="1750.2842">Acknowledged</text><path d="M30,1770.1406 L91,1770.1406 L91,1778.4922 L81,1788.4922 L30,1788.4922 L30,1770.1406 " fill="#EEEEEE" style="stroke:#000000;stroke-width:1.5;"/><rect fill="none" height="189.3594" style="stroke:#000000;stroke-width:1.5;" width="1063" x="30" y="1770.1406"/><text fill="#000000" font-family="sans-serif" font-size="13" font-weight="bold" lengthAdjust="spacing" textLength="16" x="45" y="1784.6357">alt</text><text fill="#000000" font-family="sans-serif" font-size="11" font-weight="bold" lengthAdjust="spacing" textLength="97" x="106" y="1783.5596">[Trademark (TM)]</text><rect fill="none" height="41.4453" style="stroke:#000000;stroke-width:1.5;" width="1049" x="37" y="1788.4922"/><path d="M37,1788.4922 L99,1788.4922 L99,1796.4922 L89,1806.4922 L37,1806.4922 L37,1788.4922 " fill="#EEEEEE" style="stroke:#000000;stroke-width:2.0;"/><text fill="#000000" font-family="sans-serif" font-size="13" font-weight="bold" lengthAdjust="spacing" textLength="17" x="50" y="1803.9873">ref</text><text fill="#000000" font-family="sans-serif" font-size="12" lengthAdjust="spacing" textLength="197" x="463" y="1822.9492">See "TRADEMARK Detailed Branch"</text><line style="stroke:#000000;stroke-width:1.0;stroke-dasharray:2.0,2.0;" x1="30" x2="1093" y1="1835.9375" y2="1835.9375"/><text fill="#000000" font-family="sans-serif" font-size="11" font-weight="bold" lengthAdjust="spacing" textLength="43" x="35" y="1847.3564">[Patent]</text><rect fill="none" height="41.4453" style="stroke:#000000;stroke-width:1.5;" width="1049" x="37" y="1850.7734"/><path d="M37,1850.7734 L99,1850.7734 L99,1858.7734 L89,1868.7734 L37,1868.7734 L37,1850.7734 " fill="#EEEEEE" style="stroke:#000000;stroke-width:2.0;"/><text fill="#000000" font-family="sans-serif" font-size="13" font-weight="bold" lengthAdjust="spacing" textLength="17" x="50" y="1866.2686">ref</text><text fill="#000000" font-family="sans-serif" font-size="12" lengthAdjust="spacing" textLength="170" x="476.5" y="1885.2305">See "PATENT Detailed Branch"</text><line style="stroke:#000000;stroke-width:1.0;stroke-dasharray:2.0,2.0;" x1="30" x2="1093" y1="1898.2188" y2="1898.2188"/><text fill="#000000" font-family="sans-serif" font-size="11" font-weight="bold" lengthAdjust="spacing" textLength="218" x="35" y="1909.6377">[Utility Model / Industrial Design (UM/ID)]</text><rect fill="none" height="41.4453" style="stroke:#000000;stroke-width:1.5;" width="1049" x="37" y="1913.0547"/><path d="M37,1913.0547 L99,1913.0547 L99,1921.0547 L89,1931.0547 L37,1931.0547 L37,1913.0547 " fill="#EEEEEE" style="stroke:#000000;stroke-width:2.0;"/><text fill="#000000" font-family="sans-serif" font-size="13" font-weight="bold" lengthAdjust="spacing" textLength="17" x="50" y="1928.5498">ref</text><text fill="#000000" font-family="sans-serif" font-size="12" lengthAdjust="spacing" textLength="157" x="483" y="1947.5117">See "UM/ID Detailed Branch"</text><!--SRC=[dLRBajew4DtxAxfOt40LcUndSQiC1gxhXemBcqLMAOtSW2gsv4XYfiZNfoNpyenjcEn0ElqwVTfgAso143-i7kA7z07Y15PYkxC6mgeg16TMA0af_jgZv0YHO5lDIWW2ngtICCYGxs214ZMZ_mDW1hB5-JARH4_rMNOwYvEdvB_ugp-btq75j1LSL4nQ6AG7Ox7qT-dtDCYPPS_C80oYuoz_5Ks2u5DgoH3K1jWbpo1RmET_ATWZfFldKbXNJYGCBvJPQuIvqYKCusW-2hBC8Id88wmhYeF3C4b-nD6OCepci4AEuWNpmIWWZ8D64uSqg6q7SWpqrv-NQ9bBVHH44_Xy2dEwhQrhjyTadH-DNEaSyrEyRF7eypMmbpbgkdyH-4gy5rILvAgi2hJOg1wWhigPhbp7Z8LI62Fa5eJSA0Su4vHezI9o9B-_za9ZYTAQiuTENkepHml03M8kK2oeXTDZneqiAGcEc8DLW2-isDTreCo3PeEyztKwMtdtMPnzdVKsvbgxKuq-Zp5qE729V5DMR0xz3aQakaGB4d58oakHQRuBjbhjAtXx3CCaJ4UNKedlgPBvdjjtqBfQrzM4eaXBQLfH27k0fSgnWE5wEI9faR6nMh028ZHYAvsCNO1FaMORwphy3u4iQacGLQsLw_0UTZtJ_Rq-U_LZThlXVVWsVblmP50eLS5QKlsG-to50SOvLZJyXLFEjNQcgYZOiwBl3iA6ABsQXDEmU8F5fGFt6TnWnRDhZYNU9gKTtib90-u7fpvkfQ4dIUeq3JYDbgjqJeAIstiJlcdQdNoNgTEuBoRJBCUIwPymp9PUlzaIb2mEv36Upc1QCFfURIuQhUThU4IDEb2zXBIOrAJUqyC-up4mQndV-M_dJORwq_3ML_hdJU3xGUWRXJV6JjpcH5JVHDom-nZ5JTr_cEGEytkPRPfxxOLd0ZjLzE4YJuB_sohFzYrQ-d3DRv9nGtSSlSk3wje-5_H8YD-qzIMhnfDGGsWhE-zFrzz89dEes04sYAPlVwAvn_mHmbVc5x0d8lwdLAzqkFLhHlzETRzr6ortM0Vk-BHvNLtdRgcia3i-FJELMqwCeMBTw_pkowLn0yIsfZneeyZ6BjpOCJBsTQL8Qsks2gFPCbpzJw-sPIutc6Wc-MvGVmxh9_zEPqcOpRvb7PwQIyENjeLXlVnIxmpt1FFWbbYaf3y0]--></g></svg>