<?xml version="1.0" encoding="us-ascii" standalone="no"?><svg xmlns="http://www.w3.org/2000/svg" xmlns:xlink="http://www.w3.org/1999/xlink" contentStyleType="text/css" height="1444px" preserveAspectRatio="none" style="width:1107px;height:1444px;background:#FFFFFF;" version="1.1" viewBox="0 0 1107 1444" width="1107px" zoomAndPan="magnify"><defs/><g><text fill="#000000" font-family="sans-serif" font-size="14" font-weight="bold" lengthAdjust="spacing" textLength="169" x="470.25" y="29.5332">PATENT Detailed Branch</text><rect fill="none" height="873.6094" style="stroke:#000000;stroke-width:1.5;" width="1090.5" x="10" y="472.0859"/><rect fill="none" height="185.9453" style="stroke:#000000;stroke-width:1.5;" width="1070.5" x="20" y="681.125"/><line style="stroke:#181818;stroke-width:0.5;stroke-dasharray:5.0,5.0;" x1="83" x2="83" y1="121.2188" y2="1362.6953"/><line style="stroke:#181818;stroke-width:0.5;stroke-dasharray:5.0,5.0;" x1="174" x2="174" y1="121.2188" y2="1362.6953"/><line style="stroke:#181818;stroke-width:0.5;stroke-dasharray:5.0,5.0;" x1="501" x2="501" y1="121.2188" y2="1362.6953"/><line style="stroke:#181818;stroke-width:0.5;stroke-dasharray:5.0,5.0;" x1="612" x2="612" y1="121.2188" y2="1362.6953"/><line style="stroke:#181818;stroke-width:0.5;stroke-dasharray:5.0,5.0;" x1="1046.5" x2="1046.5" y1="121.2188" y2="1362.6953"/><text fill="#000000" font-family="sans-serif" font-size="14" lengthAdjust="spacing" textLength="101" x="30" y="118.1426">Tech Generator</text><ellipse cx="83.5" cy="52.1094" fill="#E2E2F0" rx="8" ry="8" style="stroke:#181818;stroke-width:0.5;"/><path d="M83.5,60.1094 L83.5,87.1094 M70.5,68.1094 L96.5,68.1094 M83.5,87.1094 L70.5,102.1094 M83.5,87.1094 L96.5,102.1094 " fill="none" style="stroke:#181818;stroke-width:0.5;"/><text fill="#000000" font-family="sans-serif" font-size="14" lengthAdjust="spacing" textLength="101" x="30" y="1376.2285">Tech Generator</text><ellipse cx="83.5" cy="1387.8047" fill="#E2E2F0" rx="8" ry="8" style="stroke:#181818;stroke-width:0.5;"/><path d="M83.5,1395.8047 L83.5,1422.8047 M70.5,1403.8047 L96.5,1403.8047 M83.5,1422.8047 L70.5,1437.8047 M83.5,1422.8047 L96.5,1437.8047 " fill="none" style="stroke:#181818;stroke-width:0.5;"/><text fill="#000000" font-family="sans-serif" font-size="14" lengthAdjust="spacing" textLength="48" x="147" y="118.1426">TTBDO</text><ellipse cx="174" cy="52.1094" fill="#E2E2F0" rx="8" ry="8" style="stroke:#181818;stroke-width:0.5;"/><path d="M174,60.1094 L174,87.1094 M161,68.1094 L187,68.1094 M174,87.1094 L161,102.1094 M174,87.1094 L187,102.1094 " fill="none" style="stroke:#181818;stroke-width:0.5;"/><text fill="#000000" font-family="sans-serif" font-size="14" lengthAdjust="spacing" textLength="48" x="147" y="1376.2285">TTBDO</text><ellipse cx="174" cy="1387.8047" fill="#E2E2F0" rx="8" ry="8" style="stroke:#181818;stroke-width:0.5;"/><path d="M174,1395.8047 L174,1422.8047 M161,1403.8047 L187,1403.8047 M174,1422.8047 L161,1437.8047 M174,1422.8047 L187,1437.8047 " fill="none" style="stroke:#181818;stroke-width:0.5;"/><text fill="#000000" font-family="sans-serif" font-size="14" lengthAdjust="spacing" textLength="52" x="472" y="118.1426">IPOPHIL</text><ellipse cx="501" cy="52.1094" fill="#E2E2F0" rx="8" ry="8" style="stroke:#181818;stroke-width:0.5;"/><path d="M501,60.1094 L501,87.1094 M488,68.1094 L514,68.1094 M501,87.1094 L488,102.1094 M501,87.1094 L514,102.1094 " fill="none" style="stroke:#181818;stroke-width:0.5;"/><text fill="#000000" font-family="sans-serif" font-size="14" lengthAdjust="spacing" textLength="52" x="472" y="1376.2285">IPOPHIL</text><ellipse cx="501" cy="1387.8047" fill="#E2E2F0" rx="8" ry="8" style="stroke:#181818;stroke-width:0.5;"/><path d="M501,1395.8047 L501,1422.8047 M488,1403.8047 L514,1403.8047 M501,1422.8047 L488,1437.8047 M501,1422.8047 L514,1437.8047 " fill="none" style="stroke:#181818;stroke-width:0.5;"/><rect fill="#E2E2F0" height="31.6094" rx="2.5" ry="2.5" style="stroke:#181818;stroke-width:0.5;" width="60" x="582" y="88.6094"/><text fill="#000000" font-family="sans-serif" font-size="14" lengthAdjust="spacing" textLength="46" x="589" y="110.1426">System</text><rect fill="#E2E2F0" height="31.6094" rx="2.5" ry="2.5" style="stroke:#181818;stroke-width:0.5;" width="60" x="582" y="1361.6953"/><text fill="#000000" font-family="sans-serif" font-size="14" lengthAdjust="spacing" textLength="46" x="589" y="1383.2285">System</text><text fill="#000000" font-family="sans-serif" font-size="14" lengthAdjust="spacing" textLength="61" x="1013.5" y="118.1426">Database</text><path d="M1029,67.6094 C1029,57.6094 1047,57.6094 1047,57.6094 C1047,57.6094 1065,57.6094 1065,67.6094 L1065,93.6094 C1065,103.6094 1047,103.6094 1047,103.6094 C1047,103.6094 1029,103.6094 1029,93.6094 L1029,67.6094 " fill="#E2E2F0" style="stroke:#181818;stroke-width:1.5;"/><path d="M1029,67.6094 C1029,77.6094 1047,77.6094 1047,77.6094 C1047,77.6094 1065,77.6094 1065,67.6094 " fill="none" style="stroke:#181818;stroke-width:1.5;"/><text fill="#000000" font-family="sans-serif" font-size="14" lengthAdjust="spacing" textLength="61" x="1013.5" y="1376.2285">Database</text><path d="M1029,1389.3047 C1029,1379.3047 1047,1379.3047 1047,1379.3047 C1047,1379.3047 1065,1379.3047 1065,1389.3047 L1065,1415.3047 C1065,1425.3047 1047,1425.3047 1047,1425.3047 C1047,1425.3047 1029,1425.3047 1029,1415.3047 L1029,1389.3047 " fill="#E2E2F0" style="stroke:#181818;stroke-width:1.5;"/><path d="M1029,1389.3047 C1029,1399.3047 1047,1399.3047 1047,1399.3047 C1047,1399.3047 1065,1399.3047 1065,1389.3047 " fill="none" style="stroke:#181818;stroke-width:1.5;"/><polygon fill="#181818" points="600,149.5703,610,153.5703,600,157.5703,604,153.5703" style="stroke:#181818;stroke-width:1.0;"/><line style="stroke:#181818;stroke-width:1.0;" x1="174" x2="606" y1="153.5703" y2="153.5703"/><text fill="#000000" font-family="sans-serif" font-size="13" lengthAdjust="spacing" textLength="414" x="181" y="148.7139">Update(APP_ID, "IPOPHIL Acknowledged: Await Notice of Publication")</text><polygon fill="#181818" points="1035,179.9219,1045,183.9219,1035,187.9219,1039,183.9219" style="stroke:#181818;stroke-width:1.0;"/><line style="stroke:#181818;stroke-width:1.0;" x1="612" x2="1041" y1="183.9219" y2="183.9219"/><text fill="#000000" font-family="sans-serif" font-size="13" lengthAdjust="spacing" textLength="411" x="619" y="179.0654">Upsert(APP_ID, "IPOPHIL Acknowledged: Await Notice of Publication")</text><polygon fill="#181818" points="94.5,210.2734,84.5,214.2734,94.5,218.2734,90.5,214.2734" style="stroke:#181818;stroke-width:1.0;"/><line style="stroke:#181818;stroke-width:1.0;" x1="88.5" x2="611" y1="214.2734" y2="214.2734"/><text fill="#000000" font-family="sans-serif" font-size="13" lengthAdjust="spacing" textLength="352" x="100.5" y="209.417">Notify("IPOPHIL Acknowledged: Await Notice of Publication")</text><polygon fill="#181818" points="185,240.625,175,244.625,185,248.625,181,244.625" style="stroke:#181818;stroke-width:1.0;"/><line style="stroke:#181818;stroke-width:1.0;stroke-dasharray:2.0,2.0;" x1="179" x2="500" y1="244.625" y2="244.625"/><text fill="#000000" font-family="sans-serif" font-size="13" lengthAdjust="spacing" textLength="161" x="191" y="239.7686">Notice of Publication issued</text><polygon fill="#181818" points="600,270.9766,610,274.9766,600,278.9766,604,274.9766" style="stroke:#181818;stroke-width:1.0;"/><line style="stroke:#181818;stroke-width:1.0;" x1="174" x2="606" y1="274.9766" y2="274.9766"/><text fill="#000000" font-family="sans-serif" font-size="13" lengthAdjust="spacing" textLength="189" x="181" y="270.1201">Update(APP_ID, "Wait for SER")</text><polygon fill="#181818" points="1035,301.3281,1045,305.3281,1035,309.3281,1039,305.3281" style="stroke:#181818;stroke-width:1.0;"/><line style="stroke:#181818;stroke-width:1.0;" x1="612" x2="1041" y1="305.3281" y2="305.3281"/><text fill="#000000" font-family="sans-serif" font-size="13" lengthAdjust="spacing" textLength="186" x="619" y="300.4717">Upsert(APP_ID, "Wait for SER")</text><polygon fill="#181818" points="94.5,331.6797,84.5,335.6797,94.5,339.6797,90.5,335.6797" style="stroke:#181818;stroke-width:1.0;"/><line style="stroke:#181818;stroke-width:1.0;" x1="88.5" x2="611" y1="335.6797" y2="335.6797"/><text fill="#000000" font-family="sans-serif" font-size="13" lengthAdjust="spacing" textLength="127" x="100.5" y="330.8232">Notify("Wait for SER")</text><polygon fill="#181818" points="185,362.0313,175,366.0313,185,370.0313,181,366.0313" style="stroke:#181818;stroke-width:1.0;"/><line style="stroke:#181818;stroke-width:1.0;stroke-dasharray:2.0,2.0;" x1="179" x2="500" y1="366.0313" y2="366.0313"/><text fill="#000000" font-family="sans-serif" font-size="13" lengthAdjust="spacing" textLength="106" x="191" y="361.1748">SER report issued</text><polygon fill="#181818" points="600,392.3828,610,396.3828,600,400.3828,604,396.3828" style="stroke:#181818;stroke-width:1.0;"/><line style="stroke:#181818;stroke-width:1.0;" x1="174" x2="606" y1="396.3828" y2="396.3828"/><text fill="#000000" font-family="sans-serif" font-size="13" lengthAdjust="spacing" textLength="182" x="181" y="391.5264">Update(APP_ID, "SER Issued")</text><polygon fill="#181818" points="1035,422.7344,1045,426.7344,1035,430.7344,1039,426.7344" style="stroke:#181818;stroke-width:1.0;"/><line style="stroke:#181818;stroke-width:1.0;" x1="612" x2="1041" y1="426.7344" y2="426.7344"/><text fill="#000000" font-family="sans-serif" font-size="13" lengthAdjust="spacing" textLength="179" x="619" y="421.8779">Upsert(APP_ID, "SER Issued")</text><polygon fill="#181818" points="94.5,453.0859,84.5,457.0859,94.5,461.0859,90.5,457.0859" style="stroke:#181818;stroke-width:1.0;"/><line style="stroke:#181818;stroke-width:1.0;" x1="88.5" x2="611" y1="457.0859" y2="457.0859"/><text fill="#000000" font-family="sans-serif" font-size="13" lengthAdjust="spacing" textLength="120" x="100.5" y="452.2295">Notify("SER Issued")</text><path d="M10,472.0859 L71,472.0859 L71,480.4375 L61,490.4375 L10,490.4375 L10,472.0859 " fill="#EEEEEE" style="stroke:#000000;stroke-width:1.5;"/><rect fill="none" height="873.6094" style="stroke:#000000;stroke-width:1.5;" width="1090.5" x="10" y="472.0859"/><text fill="#000000" font-family="sans-serif" font-size="13" font-weight="bold" lengthAdjust="spacing" textLength="16" x="25" y="486.5811">alt</text><text fill="#000000" font-family="sans-serif" font-size="11" font-weight="bold" lengthAdjust="spacing" textLength="113" x="86" y="485.5049">["No inventive step"]</text><polygon fill="#181818" points="600,508.7891,610,512.7891,600,516.7891,604,512.7891" style="stroke:#181818;stroke-width:1.0;"/><line style="stroke:#181818;stroke-width:1.0;" x1="174" x2="606" y1="512.7891" y2="512.7891"/><text fill="#000000" font-family="sans-serif" font-size="13" lengthAdjust="spacing" textLength="336" x="181" y="507.9326">Update(APP_ID, "Downgraded to UM  &#8212;&gt; Await for FER")</text><polygon fill="#181818" points="1035,539.1406,1045,543.1406,1035,547.1406,1039,543.1406" style="stroke:#181818;stroke-width:1.0;"/><line style="stroke:#181818;stroke-width:1.0;" x1="612" x2="1041" y1="543.1406" y2="543.1406"/><text fill="#000000" font-family="sans-serif" font-size="13" lengthAdjust="spacing" textLength="333" x="619" y="538.2842">Upsert(APP_ID, "Downgraded to UM  &#8212;&gt; Await for FER")</text><polygon fill="#181818" points="94.5,569.4922,84.5,573.4922,94.5,577.4922,90.5,573.4922" style="stroke:#181818;stroke-width:1.0;"/><line style="stroke:#181818;stroke-width:1.0;" x1="88.5" x2="611" y1="573.4922" y2="573.4922"/><text fill="#000000" font-family="sans-serif" font-size="13" lengthAdjust="spacing" textLength="270" x="100.5" y="568.6357">Notify("Downgraded to UM &#8212;&gt; Await for FER")</text><polygon fill="#181818" points="489,599.8438,499,603.8438,489,607.8438,493,603.8438" style="stroke:#181818;stroke-width:1.0;"/><line style="stroke:#181818;stroke-width:1.0;" x1="174" x2="495" y1="603.8438" y2="603.8438"/><text fill="#000000" font-family="sans-serif" font-size="13" lengthAdjust="spacing" textLength="185" x="181" y="598.9873">Submit application and pay fees</text><rect fill="none" height="41.4453" style="stroke:#000000;stroke-width:1.5;" width="1056.5" x="27" y="611.8438"/><path d="M27,611.8438 L89,611.8438 L89,619.8438 L79,629.8438 L27,629.8438 L27,611.8438 " fill="#EEEEEE" style="stroke:#000000;stroke-width:2.0;"/><text fill="#000000" font-family="sans-serif" font-size="13" font-weight="bold" lengthAdjust="spacing" textLength="17" x="40" y="627.3389">ref</text><text fill="#000000" font-family="sans-serif" font-size="12" lengthAdjust="spacing" textLength="161" x="474.75" y="646.3008">Refer UM/ID Detailed Branch"</text><line style="stroke:#000000;stroke-width:1.0;stroke-dasharray:2.0,2.0;" x1="10" x2="1100.5" y1="659.2891" y2="659.2891"/><text fill="#000000" font-family="sans-serif" font-size="11" font-weight="bold" lengthAdjust="spacing" textLength="136" x="15" y="670.708">[Proceed to Patent filing]</text><path d="M20,681.125 L93,681.125 L93,689.4766 L83,699.4766 L20,699.4766 L20,681.125 " fill="#EEEEEE" style="stroke:#000000;stroke-width:1.5;"/><rect fill="none" height="185.9453" style="stroke:#000000;stroke-width:1.5;" width="1070.5" x="20" y="681.125"/><text fill="#000000" font-family="sans-serif" font-size="13" font-weight="bold" lengthAdjust="spacing" textLength="28" x="35" y="695.6201">loop</text><text fill="#000000" font-family="sans-serif" font-size="11" font-weight="bold" lengthAdjust="spacing" textLength="187" x="108" y="694.5439">[Until SER response is acceptable]</text><polygon fill="#181818" points="600,717.8281,610,721.8281,600,725.8281,604,721.8281" style="stroke:#181818;stroke-width:1.0;"/><line style="stroke:#181818;stroke-width:1.0;" x1="174" x2="606" y1="721.8281" y2="721.8281"/><text fill="#000000" font-family="sans-serif" font-size="13" lengthAdjust="spacing" textLength="265" x="181" y="716.9717">Update(APP_ID, "SER Response Submitted")</text><polygon fill="#181818" points="1035,748.1797,1045,752.1797,1035,756.1797,1039,752.1797" style="stroke:#181818;stroke-width:1.0;"/><line style="stroke:#181818;stroke-width:1.0;" x1="612" x2="1041" y1="752.1797" y2="752.1797"/><text fill="#000000" font-family="sans-serif" font-size="13" lengthAdjust="spacing" textLength="262" x="619" y="747.3232">Upsert(APP_ID, "SER Response Submitted")</text><polygon fill="#181818" points="94.5,778.5313,84.5,782.5313,94.5,786.5313,90.5,782.5313" style="stroke:#181818;stroke-width:1.0;"/><line style="stroke:#181818;stroke-width:1.0;" x1="88.5" x2="611" y1="782.5313" y2="782.5313"/><text fill="#000000" font-family="sans-serif" font-size="13" lengthAdjust="spacing" textLength="203" x="100.5" y="777.6748">Notify("SER Response Submitted")</text><polygon fill="#181818" points="185,808.8828,175,812.8828,185,816.8828,181,812.8828" style="stroke:#181818;stroke-width:1.0;"/><line style="stroke:#181818;stroke-width:1.0;stroke-dasharray:2.0,2.0;" x1="179" x2="500" y1="812.8828" y2="812.8828"/><text fill="#000000" font-family="sans-serif" font-size="13" lengthAdjust="spacing" textLength="303" x="191" y="808.0264">SER result (allowed / further objections / downgrade)</text><line style="stroke:#000000;stroke-width:1.0;stroke-dasharray:2.0,2.0;" x1="20" x2="1090.5" y1="821.8828" y2="821.8828"/><text fill="#000000" font-family="sans-serif" font-size="11" font-weight="bold" lengthAdjust="spacing" textLength="160" x="25" y="833.3018">[SER response is acceptable]</text><polygon fill="#181818" points="489,855.0703,499,859.0703,489,863.0703,493,859.0703" style="stroke:#181818;stroke-width:1.0;"/><line style="stroke:#181818;stroke-width:1.0;" x1="174" x2="495" y1="859.0703" y2="859.0703"/><text fill="#000000" font-family="sans-serif" font-size="13" lengthAdjust="spacing" textLength="129" x="181" y="854.2139">Submit SER response</text><polygon fill="#181818" points="600,892.4219,610,896.4219,600,900.4219,604,896.4219" style="stroke:#181818;stroke-width:1.0;"/><line style="stroke:#181818;stroke-width:1.0;" x1="174" x2="606" y1="896.4219" y2="896.4219"/><text fill="#000000" font-family="sans-serif" font-size="13" lengthAdjust="spacing" textLength="188" x="181" y="891.5654">Update(APP_ID, "For Issuance")</text><polygon fill="#181818" points="1035,922.7734,1045,926.7734,1035,930.7734,1039,926.7734" style="stroke:#181818;stroke-width:1.0;"/><line style="stroke:#181818;stroke-width:1.0;" x1="612" x2="1041" y1="926.7734" y2="926.7734"/><text fill="#000000" font-family="sans-serif" font-size="13" lengthAdjust="spacing" textLength="189" x="619" y="921.917">Upsert(APP_ID, " For Issuance")</text><polygon fill="#181818" points="94.5,953.125,84.5,957.125,94.5,961.125,90.5,957.125" style="stroke:#181818;stroke-width:1.0;"/><line style="stroke:#181818;stroke-width:1.0;" x1="88.5" x2="611" y1="957.125" y2="957.125"/><text fill="#000000" font-family="sans-serif" font-size="13" lengthAdjust="spacing" textLength="126" x="100.5" y="952.2686">Notify("For Issuance")</text><polygon fill="#181818" points="185,983.4766,175,987.4766,185,991.4766,181,987.4766" style="stroke:#181818;stroke-width:1.0;"/><line style="stroke:#181818;stroke-width:1.0;stroke-dasharray:2.0,2.0;" x1="179" x2="500" y1="987.4766" y2="987.4766"/><text fill="#000000" font-family="sans-serif" font-size="13" lengthAdjust="spacing" textLength="207" x="191" y="982.6201">Notice of Issuance of Letters Patent</text><polygon fill="#181818" points="600,1013.8281,610,1017.8281,600,1021.8281,604,1017.8281" style="stroke:#181818;stroke-width:1.0;"/><line style="stroke:#181818;stroke-width:1.0;" x1="174" x2="606" y1="1017.8281" y2="1017.8281"/><text fill="#000000" font-family="sans-serif" font-size="13" lengthAdjust="spacing" textLength="220" x="181" y="1012.9717">Update(APP_ID, "Notice of Issuance")</text><polygon fill="#181818" points="1035,1044.1797,1045,1048.1797,1035,1052.1797,1039,1048.1797" style="stroke:#181818;stroke-width:1.0;"/><line style="stroke:#181818;stroke-width:1.0;" x1="612" x2="1041" y1="1048.1797" y2="1048.1797"/><text fill="#000000" font-family="sans-serif" font-size="13" lengthAdjust="spacing" textLength="217" x="619" y="1043.3232">Upsert(APP_ID, "Notice of Issuance")</text><polygon fill="#181818" points="94.5,1074.5313,84.5,1078.5313,94.5,1082.5313,90.5,1078.5313" style="stroke:#181818;stroke-width:1.0;"/><line style="stroke:#181818;stroke-width:1.0;" x1="88.5" x2="611" y1="1078.5313" y2="1078.5313"/><text fill="#000000" font-family="sans-serif" font-size="13" lengthAdjust="spacing" textLength="158" x="100.5" y="1073.6748">Notify("Notice of Issuance")</text><polygon fill="#181818" points="489,1121.2344,499,1125.2344,489,1129.2344,493,1125.2344" style="stroke:#181818;stroke-width:1.0;"/><line style="stroke:#181818;stroke-width:1.0;" x1="174" x2="495" y1="1125.2344" y2="1125.2344"/><text fill="#000000" font-family="sans-serif" font-size="13" lengthAdjust="spacing" textLength="166" x="181" y="1104.0264">Request &amp; pay for Certificate</text><text fill="#000000" font-family="sans-serif" font-size="13" lengthAdjust="spacing" textLength="123" x="181" y="1120.3779">of Registration (COR)</text><polygon fill="#181818" points="600,1151.5859,610,1155.5859,600,1159.5859,604,1155.5859" style="stroke:#181818;stroke-width:1.0;"/><line style="stroke:#181818;stroke-width:1.0;" x1="174" x2="606" y1="1155.5859" y2="1155.5859"/><text fill="#000000" font-family="sans-serif" font-size="13" lengthAdjust="spacing" textLength="190" x="181" y="1150.7295">Update(APP_ID, "Wait for COR")</text><polygon fill="#181818" points="1035,1181.9375,1045,1185.9375,1035,1189.9375,1039,1185.9375" style="stroke:#181818;stroke-width:1.0;"/><line style="stroke:#181818;stroke-width:1.0;" x1="612" x2="1041" y1="1185.9375" y2="1185.9375"/><text fill="#000000" font-family="sans-serif" font-size="13" lengthAdjust="spacing" textLength="187" x="619" y="1181.0811">Upsert(APP_ID, "Wait for COR")</text><polygon fill="#181818" points="94.5,1212.2891,84.5,1216.2891,94.5,1220.2891,90.5,1216.2891" style="stroke:#181818;stroke-width:1.0;"/><line style="stroke:#181818;stroke-width:1.0;" x1="88.5" x2="611" y1="1216.2891" y2="1216.2891"/><text fill="#000000" font-family="sans-serif" font-size="13" lengthAdjust="spacing" textLength="128" x="100.5" y="1211.4326">Notify("Wait for COR")</text><polygon fill="#181818" points="185,1242.6406,175,1246.6406,185,1250.6406,181,1246.6406" style="stroke:#181818;stroke-width:1.0;"/><line style="stroke:#181818;stroke-width:1.0;stroke-dasharray:2.0,2.0;" x1="179" x2="500" y1="1246.6406" y2="1246.6406"/><text fill="#000000" font-family="sans-serif" font-size="13" lengthAdjust="spacing" textLength="70" x="191" y="1241.7842">COR issued</text><polygon fill="#181818" points="600,1272.9922,610,1276.9922,600,1280.9922,604,1276.9922" style="stroke:#181818;stroke-width:1.0;"/><line style="stroke:#181818;stroke-width:1.0;" x1="174" x2="606" y1="1276.9922" y2="1276.9922"/><text fill="#000000" font-family="sans-serif" font-size="13" lengthAdjust="spacing" textLength="175" x="181" y="1272.1357">Update(APP_ID, "Registered")</text><polygon fill="#181818" points="1035,1303.3438,1045,1307.3438,1035,1311.3438,1039,1307.3438" style="stroke:#181818;stroke-width:1.0;"/><line style="stroke:#181818;stroke-width:1.0;" x1="612" x2="1041" y1="1307.3438" y2="1307.3438"/><text fill="#000000" font-family="sans-serif" font-size="13" lengthAdjust="spacing" textLength="172" x="619" y="1302.4873">Upsert(APP_ID, "Registered")</text><polygon fill="#181818" points="94.5,1333.6953,84.5,1337.6953,94.5,1341.6953,90.5,1337.6953" style="stroke:#181818;stroke-width:1.0;"/><line style="stroke:#181818;stroke-width:1.0;" x1="88.5" x2="611" y1="1337.6953" y2="1337.6953"/><text fill="#000000" font-family="sans-serif" font-size="13" lengthAdjust="spacing" textLength="113" x="100.5" y="1332.8389">Notify("Registered")</text><!--SRC=[hLHTRzem57tthxZAmqerghxpK0cQjaFgIWH1rQH9aqbkgBVKpcm7nDj-n7xXVick7M01KgDDUu4aFlVZd7kkhR0bGZ9CxvvIYD5oKM8E8yrbzi8OpwpI4AMOlS03IjIStYFW1jA7_M4wYYVDjtJtRPnCaW_ZH_-Ldbd5jHMPgBYq4CqsnkAhFvjzch6SMxxW1Y6Ajq_-A1unbgPmTUD00vXNXCFUC4c-ZEF-lW8CiszIhQdd9UO36AwviF2ag1Y2AY2f5wN8k1LAHfUC4hbyySYbCwZjVqcNFWmyfDZq_YaDeo2uSedIGJS8X34rJIKeoBEhKP3uixjfc6itiatZ2C4kwF-WJNe7ZPNITjjRg3C77djKkAykNBkhWtF6IxBIam8XLoYjM26Ggwg80GHQYTLQBZNFIKohOFuHuDUFdpVR0Jd2zvumGA3DlytHfd0I-qPeGu4K9wdhnIkTyghQsu7B72g-WGBHC49Vm1HhMY3xWfJpUXoxFE_R1beq-mmqj0BK2ZLrrQSgVLUZxphjUwvJBEYioN5q6KIk4iEIwYHQPTXGI4XUskb2b48k2L0gLS6Svb5kFM8g9Ib46E1PXXKjU8c42qx9HKvtaGr_wuVkuiuOw5pSiQ4wyJxWrE-c9i_rU5cgDR6_XgBM9Ba6jVYAcTFPqCTyD-Ach1ViZ1HTysw7UD3k1sKUzlWz-SYj2GqDptaPtWAtPJh2ECFjNk4T2RWKnchlCtQesf_BR8-dvqSabRNPMYVCvJJ3EKRXY3QjJkJXxatnUut64ak_RgJ3BHKJXLih_2mfjCqUUhUJwMMOqFvc9UWvAczXEs_g1dCq0Fgukv-3NJKiK6-N9T1JDxBTqG72cVKt]--></g></svg>